<?xml version="1.0" encoding="UTF-8"?>
<svg xmlns="http://www.w3.org/2000/svg" xmlns:xlink="http://www.w3.org/1999/xlink" width="100pt" height="100pt" viewBox="0 0 100 100" version="1.1">
<g id="surface2147808">
<path style=" stroke:none;fill-rule:nonzero;fill:rgb(100%,100%,100%);fill-opacity:1;" d="M 16 6.019531 C 9.058594 6.019531 4.019531 10.179688 4.019531 15.898438 C 4.019531 21.636719 9.179688 25.980469 16 25.980469 C 22.941406 25.980469 27.980469 21.742188 27.980469 15.78125 C 27.660156 10.042969 22.71875 6.019531 16 6.019531 Z M 6 30 C 4.898438 30 4 30.898438 4 32 L 4 90 C 4 91.101562 4.898438 92 6 92 L 26 92 C 27.101562 92 28 91.101562 28 90 L 28 32 C 28 30.898438 27.101562 30 26 30 Z M 36 30 C 34.898438 30 34 30.898438 34 32 L 34 90 C 34 91.101562 34.898438 92 36 92 L 54 92 C 55.105469 92 56 91.105469 56 90 L 56 59 C 56 54.261719 59.640625 50.398438 64.28125 50.039062 C 64.519531 50 64.761719 50 65 50 C 65.238281 50 65.480469 50 65.71875 50.039062 C 70.359375 50.398438 74 54.261719 74 59 L 74 90 C 74 91.105469 74.894531 92 76 92 L 94 92 C 95.101562 92 96 91.101562 96 90 L 96 56 C 96 43.058594 89.058594 30 73.578125 30 C 66.539062 30 61.21875 32.71875 58 34.980469 L 58 32 C 58 30.898438 57.101562 30 56 30 Z M 36 30 "/>
</g>
</svg>
